<?xml version="1.0" encoding="utf-8" standalone="no"?>
<!DOCTYPE svg PUBLIC "-//W3C//DTD SVG 1.1//EN"
  "http://www.w3.org/Graphics/SVG/1.1/DTD/svg11.dtd">
<!-- Created with matplotlib (https://matplotlib.org/) -->
<svg height="720pt" version="1.1" viewBox="0 0 2160 720" width="2160pt" xmlns="http://www.w3.org/2000/svg" xmlns:xlink="http://www.w3.org/1999/xlink">
 <metadata>
  <rdf:RDF xmlns:cc="http://creativecommons.org/ns#" xmlns:dc="http://purl.org/dc/elements/1.1/" xmlns:rdf="http://www.w3.org/1999/02/22-rdf-syntax-ns#">
   <cc:Work>
    <dc:type rdf:resource="http://purl.org/dc/dcmitype/StillImage"/>
    <dc:date>2022-05-06T17:02:04.456061</dc:date>
    <dc:format>image/svg+xml</dc:format>
    <dc:creator>
     <cc:Agent>
      <dc:title>Matplotlib v3.3.4, https://matplotlib.org/</dc:title>
     </cc:Agent>
    </dc:creator>
   </cc:Work>
  </rdf:RDF>
 </metadata>
 <defs>
  <style type="text/css">*{stroke-linecap:butt;stroke-linejoin:round;}</style>
 </defs>
 <g id="figure_1">
  <g id="patch_1">
   <path d="M 0 720 
L 2160 720 
L 2160 0 
L 0 0 
z
" style="fill:#ffffff;"/>
  </g>
  <g id="axes_1">
   <g id="patch_2">
    <path d="M 495.45 630 
L 1718.55 630 
L 1718.55 86.4 
L 495.45 86.4 
z
" style="fill:#eaeaf2;"/>
   </g>
   <g id="matplotlib.axis_1">
    <g id="xtick_1">
     <g id="text_1">
      <!-- 8.0 -->
      <g style="fill:#262626;" transform="translate(539.024688 665.686016)scale(0.385 -0.385)">
       <defs>
        <path d="M 46.578125 16.21875 
Q 46.578125 12.109375 45.109375 8.90625 
Q 43.65625 5.71875 40.890625 3.515625 
Q 38.140625 1.3125 34.078125 0.1875 
Q 30.03125 -0.921875 24.8125 -0.921875 
Q 19.921875 -0.921875 16.0625 0.09375 
Q 12.203125 1.125 9.515625 3.125 
Q 6.84375 5.125 5.421875 8.046875 
Q 4 10.984375 4 14.75 
Q 4 17.71875 4.96875 20.203125 
Q 5.953125 22.703125 7.78125 24.796875 
Q 9.625 26.90625 12.296875 28.734375 
Q 14.984375 30.5625 18.359375 32.234375 
Q 15.4375 33.734375 13.1875 35.421875 
Q 10.9375 37.109375 9.375 39.078125 
Q 7.8125 41.0625 7 43.3125 
Q 6.203125 45.5625 6.203125 48.1875 
Q 6.203125 51.515625 7.390625 54.421875 
Q 8.59375 57.328125 11 59.46875 
Q 13.421875 61.625 17.15625 62.859375 
Q 20.90625 64.109375 25.875 64.109375 
Q 30.671875 64.109375 34.15625 62.953125 
Q 37.640625 61.8125 39.90625 59.828125 
Q 42.1875 57.859375 43.265625 55.171875 
Q 44.34375 52.484375 44.34375 49.421875 
Q 44.34375 46.921875 43.53125 44.625 
Q 42.71875 42.328125 41.15625 40.28125 
Q 39.59375 38.234375 37.328125 36.453125 
Q 35.0625 34.671875 32.125 33.109375 
Q 35.59375 31.390625 38.296875 29.578125 
Q 41.015625 27.78125 42.84375 25.703125 
Q 44.671875 23.640625 45.625 21.3125 
Q 46.578125 19 46.578125 16.21875 
z
M 36.03125 48.640625 
Q 36.03125 50.6875 35.328125 52.34375 
Q 34.625 54 33.25 55.171875 
Q 31.890625 56.34375 29.859375 56.953125 
Q 27.828125 57.5625 25.25 57.5625 
Q 19.96875 57.5625 17.25 55.171875 
Q 14.546875 52.78125 14.546875 48.640625 
Q 14.546875 46.734375 15.203125 45.09375 
Q 15.875 43.453125 17.265625 41.984375 
Q 18.65625 40.53125 20.78125 39.140625 
Q 22.90625 37.75 25.828125 36.234375 
Q 30.765625 38.765625 33.390625 41.84375 
Q 36.03125 44.921875 36.03125 48.640625 
z
M 38.09375 15.328125 
Q 38.09375 17.578125 37.25 19.40625 
Q 36.421875 21.234375 34.734375 22.828125 
Q 33.0625 24.421875 30.546875 25.90625 
Q 28.03125 27.390625 24.703125 29 
Q 21.625 27.484375 19.3125 25.96875 
Q 17 24.46875 15.5 22.84375 
Q 14.015625 21.234375 13.25 19.453125 
Q 12.5 17.671875 12.5 15.53125 
Q 12.5 10.796875 15.75 8.203125 
Q 19 5.609375 25.4375 5.609375 
Q 31.6875 5.609375 34.890625 8.21875 
Q 38.09375 10.84375 38.09375 15.328125 
z
" id="Calibri-56"/>
        <path d="M 17.875 5.328125 
Q 17.875 1.859375 16.71875 0.703125 
Q 15.578125 -0.4375 12.546875 -0.4375 
Q 9.625 -0.4375 8.5 0.6875 
Q 7.375 1.8125 7.375 5.171875 
Q 7.375 8.640625 8.515625 9.78125 
Q 9.671875 10.9375 12.703125 10.9375 
Q 15.625 10.9375 16.75 9.8125 
Q 17.875 8.6875 17.875 5.328125 
z
" id="Calibri-46"/>
        <path d="M 47.21875 31.734375 
Q 47.21875 24.46875 46.0625 18.453125 
Q 44.921875 12.453125 42.25 8.125 
Q 39.59375 3.8125 35.296875 1.4375 
Q 31 -0.921875 24.703125 -0.921875 
Q 18.75 -0.921875 14.671875 1.203125 
Q 10.59375 3.328125 8.09375 7.453125 
Q 5.609375 11.578125 4.5625 17.609375 
Q 3.515625 23.640625 3.515625 31.453125 
Q 3.515625 38.671875 4.6875 44.703125 
Q 5.859375 50.734375 8.5 55.046875 
Q 11.140625 59.375 15.4375 61.734375 
Q 19.734375 64.109375 25.984375 64.109375 
Q 31.984375 64.109375 36.0625 61.984375 
Q 40.140625 59.859375 42.625 55.734375 
Q 45.125 51.609375 46.171875 45.578125 
Q 47.21875 39.546875 47.21875 31.734375 
z
M 38.625 31.15625 
Q 38.625 35.890625 38.28125 39.640625 
Q 37.9375 43.40625 37.28125 46.28125 
Q 36.625 49.171875 35.5625 51.25 
Q 34.515625 53.328125 33.046875 54.65625 
Q 31.59375 56 29.703125 56.609375 
Q 27.828125 57.234375 25.484375 57.234375 
Q 21.34375 57.234375 18.75 55.28125 
Q 16.15625 53.328125 14.671875 49.90625 
Q 13.1875 46.484375 12.640625 41.890625 
Q 12.109375 37.3125 12.109375 32.03125 
Q 12.109375 24.953125 12.84375 20 
Q 13.578125 15.046875 15.15625 11.921875 
Q 16.75 8.796875 19.21875 7.375 
Q 21.6875 5.953125 25.203125 5.953125 
Q 27.9375 5.953125 30 6.828125 
Q 32.078125 7.71875 33.5625 9.34375 
Q 35.0625 10.984375 36.03125 13.28125 
Q 37.015625 15.578125 37.59375 18.359375 
Q 38.1875 21.140625 38.40625 24.390625 
Q 38.625 27.640625 38.625 31.15625 
z
" id="Calibri-48"/>
       </defs>
       <use xlink:href="#Calibri-56"/>
       <use x="50.683594" xlink:href="#Calibri-46"/>
       <use x="75.927734" xlink:href="#Calibri-48"/>
      </g>
     </g>
    </g>
    <g id="xtick_2">
     <g id="text_2">
      <!-- 9.0 -->
      <g style="fill:#262626;" transform="translate(674.924688 665.686016)scale(0.385 -0.385)">
       <defs>
        <path d="M 45.609375 34.078125 
Q 45.609375 29.984375 45.109375 25.78125 
Q 44.625 21.578125 43.453125 17.6875 
Q 42.28125 13.8125 40.296875 10.421875 
Q 38.328125 7.03125 35.328125 4.484375 
Q 32.328125 1.953125 28.203125 0.515625 
Q 24.078125 -0.921875 18.609375 -0.921875 
Q 16.5 -0.921875 14.515625 -0.65625 
Q 12.546875 -0.390625 10.953125 0 
Q 9.375 0.390625 8.296875 0.828125 
Q 7.234375 1.265625 6.734375 1.703125 
Q 6.25 2.15625 6.03125 2.90625 
Q 5.8125 3.65625 5.8125 4.9375 
Q 5.8125 6 5.875 6.640625 
Q 5.953125 7.28125 6.09375 7.609375 
Q 6.25 7.953125 6.515625 8.078125 
Q 6.78125 8.203125 7.171875 8.203125 
Q 7.71875 8.203125 8.6875 7.828125 
Q 9.671875 7.46875 11.15625 7.03125 
Q 12.640625 6.59375 14.640625 6.21875 
Q 16.65625 5.859375 19.140625 5.859375 
Q 23.875 5.859375 27.265625 7.6875 
Q 30.671875 9.515625 32.8125 12.59375 
Q 34.96875 15.671875 36.03125 19.71875 
Q 37.109375 23.78125 37.203125 28.265625 
Q 34.625 26.765625 31 25.59375 
Q 27.390625 24.421875 22.703125 24.421875 
Q 17.4375 24.421875 13.84375 25.859375 
Q 10.25 27.296875 8.078125 29.78125 
Q 5.90625 32.28125 4.953125 35.6875 
Q 4 39.109375 4 43.171875 
Q 4 47.359375 5.21875 51.140625 
Q 6.453125 54.9375 9.03125 57.8125 
Q 11.625 60.6875 15.625 62.390625 
Q 19.625 64.109375 25.203125 64.109375 
Q 29.15625 64.109375 32.203125 63.109375 
Q 35.25 62.109375 37.5 60.21875 
Q 39.75 58.34375 41.3125 55.6875 
Q 42.875 53.03125 43.828125 49.65625 
Q 44.78125 46.296875 45.1875 42.359375 
Q 45.609375 38.421875 45.609375 34.078125 
z
M 37.0625 35.015625 
Q 37.0625 41.265625 36.234375 45.53125 
Q 35.40625 49.8125 33.78125 52.4375 
Q 32.171875 55.078125 29.828125 56.25 
Q 27.484375 57.421875 24.421875 57.421875 
Q 21.234375 57.421875 18.984375 56.265625 
Q 16.75 55.125 15.3125 53.1875 
Q 13.875 51.265625 13.1875 48.828125 
Q 12.5 46.390625 12.5 43.796875 
Q 12.5 40.921875 13.109375 38.53125 
Q 13.71875 36.140625 15.078125 34.46875 
Q 16.453125 32.8125 18.640625 31.90625 
Q 20.84375 31 24.078125 31 
Q 27.734375 31 31.15625 32.09375 
Q 34.578125 33.203125 37.0625 35.015625 
z
" id="Calibri-57"/>
       </defs>
       <use xlink:href="#Calibri-57"/>
       <use x="50.683594" xlink:href="#Calibri-46"/>
       <use x="75.927734" xlink:href="#Calibri-48"/>
      </g>
     </g>
    </g>
    <g id="xtick_3">
     <g id="text_3">
      <!-- 10.0 -->
      <g style="fill:#262626;" transform="translate(801.067344 665.686016)scale(0.385 -0.385)">
       <defs>
        <path d="M 45.265625 3.328125 
Q 45.265625 2.390625 45.109375 1.75 
Q 44.96875 1.125 44.71875 0.734375 
Q 44.484375 0.34375 44.15625 0.171875 
Q 43.84375 0 43.5 0 
L 10.5 0 
Q 10.15625 0 9.859375 0.171875 
Q 9.578125 0.34375 9.296875 0.734375 
Q 9.03125 1.125 8.875 1.75 
Q 8.734375 2.390625 8.734375 3.328125 
Q 8.734375 4.203125 8.875 4.828125 
Q 9.03125 5.46875 9.25 5.875 
Q 9.46875 6.296875 9.78125 6.515625 
Q 10.109375 6.734375 10.5 6.734375 
L 23.6875 6.734375 
L 23.6875 54.78125 
L 11.46875 47.515625 
Q 10.546875 47.015625 9.984375 46.921875 
Q 9.421875 46.828125 9.078125 47.140625 
Q 8.734375 47.46875 8.609375 48.1875 
Q 8.5 48.921875 8.5 50.046875 
Q 8.5 50.875 8.5625 51.453125 
Q 8.640625 52.046875 8.78125 52.4375 
Q 8.9375 52.828125 9.203125 53.125 
Q 9.46875 53.421875 9.90625 53.71875 
L 24.46875 63.03125 
Q 24.65625 63.1875 24.953125 63.28125 
Q 25.25 63.375 25.6875 63.46875 
Q 26.125 63.578125 26.703125 63.59375 
Q 27.296875 63.625 28.171875 63.625 
Q 29.34375 63.625 30.125 63.515625 
Q 30.90625 63.421875 31.34375 63.25 
Q 31.78125 63.09375 31.921875 62.8125 
Q 32.078125 62.546875 32.078125 62.25 
L 32.078125 6.734375 
L 43.5 6.734375 
Q 43.890625 6.734375 44.234375 6.515625 
Q 44.578125 6.296875 44.796875 5.875 
Q 45.015625 5.46875 45.140625 4.828125 
Q 45.265625 4.203125 45.265625 3.328125 
z
" id="Calibri-49"/>
       </defs>
       <use xlink:href="#Calibri-49"/>
       <use x="50.683594" xlink:href="#Calibri-48"/>
       <use x="101.367188" xlink:href="#Calibri-46"/>
       <use x="126.611328" xlink:href="#Calibri-48"/>
      </g>
     </g>
    </g>
    <g id="xtick_4">
     <g id="text_4">
      <!-- 11.0 -->
      <g style="fill:#262626;" transform="translate(936.967344 665.686016)scale(0.385 -0.385)">
       <use xlink:href="#Calibri-49"/>
       <use x="50.683594" xlink:href="#Calibri-49"/>
       <use x="101.367188" xlink:href="#Calibri-46"/>
       <use x="126.611328" xlink:href="#Calibri-48"/>
      </g>
     </g>
    </g>
    <g id="xtick_5">
     <g id="text_5">
      <!-- 12.0 -->
      <g style="fill:#262626;" transform="translate(1072.867344 665.686016)scale(0.385 -0.385)">
       <defs>
        <path d="M 45.125 3.609375 
Q 45.125 2.734375 45 2.046875 
Q 44.875 1.375 44.65625 0.90625 
Q 44.4375 0.4375 44.0625 0.21875 
Q 43.703125 0 43.265625 0 
L 8.34375 0 
Q 7.671875 0 7.15625 0.171875 
Q 6.640625 0.34375 6.265625 0.734375 
Q 5.90625 1.125 5.734375 1.859375 
Q 5.5625 2.59375 5.5625 3.65625 
Q 5.5625 4.640625 5.640625 5.375 
Q 5.71875 6.109375 5.953125 6.671875 
Q 6.203125 7.234375 6.5625 7.78125 
Q 6.9375 8.34375 7.515625 8.984375 
L 19.78125 21.96875 
Q 24.03125 26.46875 26.59375 30.03125 
Q 29.15625 33.59375 30.546875 36.515625 
Q 31.9375 39.453125 32.375 41.84375 
Q 32.8125 44.234375 32.8125 46.34375 
Q 32.8125 48.4375 32.125 50.3125 
Q 31.453125 52.203125 30.15625 53.609375 
Q 28.859375 55.03125 26.90625 55.859375 
Q 24.953125 56.6875 22.40625 56.6875 
Q 19.4375 56.6875 17.0625 55.859375 
Q 14.703125 55.03125 12.921875 54.046875 
Q 11.140625 53.078125 9.9375 52.25 
Q 8.734375 51.421875 8.15625 51.421875 
Q 7.8125 51.421875 7.546875 51.609375 
Q 7.28125 51.8125 7.109375 52.25 
Q 6.9375 52.6875 6.828125 53.421875 
Q 6.734375 54.15625 6.734375 55.171875 
Q 6.734375 55.90625 6.78125 56.4375 
Q 6.84375 56.984375 6.953125 57.375 
Q 7.078125 57.765625 7.265625 58.109375 
Q 7.46875 58.453125 8.046875 58.953125 
Q 8.640625 59.46875 10.078125 60.34375 
Q 11.53125 61.234375 13.703125 62.078125 
Q 15.875 62.9375 18.484375 63.515625 
Q 21.09375 64.109375 23.96875 64.109375 
Q 28.5625 64.109375 32 62.8125 
Q 35.453125 61.53125 37.71875 59.28125 
Q 39.984375 57.03125 41.109375 54.046875 
Q 42.234375 51.078125 42.234375 47.703125 
Q 42.234375 44.671875 41.6875 41.671875 
Q 41.15625 38.671875 39.421875 35.171875 
Q 37.703125 31.6875 34.421875 27.40625 
Q 31.15625 23.140625 25.734375 17.578125 
L 15.71875 7.125 
L 43.21875 7.125 
Q 43.609375 7.125 43.96875 6.90625 
Q 44.34375 6.6875 44.609375 6.25 
Q 44.875 5.8125 45 5.15625 
Q 45.125 4.5 45.125 3.609375 
z
" id="Calibri-50"/>
       </defs>
       <use xlink:href="#Calibri-49"/>
       <use x="50.683594" xlink:href="#Calibri-50"/>
       <use x="101.367188" xlink:href="#Calibri-46"/>
       <use x="126.611328" xlink:href="#Calibri-48"/>
      </g>
     </g>
    </g>
    <g id="xtick_6">
     <g id="text_6">
      <!-- 13.0 -->
      <g style="fill:#262626;" transform="translate(1208.767344 665.686016)scale(0.385 -0.385)">
       <defs>
        <path d="M 44.625 18.0625 
Q 44.625 13.71875 43.109375 10.21875 
Q 41.609375 6.734375 38.765625 4.25 
Q 35.9375 1.765625 31.78125 0.421875 
Q 27.640625 -0.921875 22.40625 -0.921875 
Q 19.234375 -0.921875 16.46875 -0.40625 
Q 13.71875 0.09375 11.5625 0.796875 
Q 9.421875 1.515625 8 2.265625 
Q 6.59375 3.03125 6.21875 3.375 
Q 5.859375 3.71875 5.65625 4.046875 
Q 5.46875 4.390625 5.3125 4.875 
Q 5.171875 5.375 5.09375 6.078125 
Q 5.03125 6.78125 5.03125 7.8125 
Q 5.03125 9.578125 5.375 10.25 
Q 5.71875 10.9375 6.34375 10.9375 
Q 6.78125 10.9375 8.078125 10.15625 
Q 9.375 9.375 11.390625 8.46875 
Q 13.421875 7.5625 16.125 6.78125 
Q 18.84375 6 22.171875 6 
Q 25.390625 6 27.828125 6.828125 
Q 30.28125 7.671875 31.9375 9.171875 
Q 33.59375 10.6875 34.421875 12.765625 
Q 35.25 14.84375 35.25 17.28125 
Q 35.25 19.96875 34.203125 22.109375 
Q 33.15625 24.265625 31.125 25.828125 
Q 29.109375 27.390625 26.140625 28.21875 
Q 23.1875 29.046875 19.4375 29.046875 
L 13.421875 29.046875 
Q 13.03125 29.046875 12.671875 29.21875 
Q 12.3125 29.390625 12.03125 29.78125 
Q 11.765625 30.171875 11.59375 30.8125 
Q 11.421875 31.453125 11.421875 32.46875 
Q 11.421875 33.40625 11.5625 34.015625 
Q 11.71875 34.625 11.984375 34.984375 
Q 12.25 35.359375 12.59375 35.515625 
Q 12.9375 35.6875 13.375 35.6875 
L 18.890625 35.6875 
Q 22.125 35.6875 24.6875 36.515625 
Q 27.25 37.359375 29.03125 38.921875 
Q 30.8125 40.484375 31.765625 42.65625 
Q 32.71875 44.828125 32.71875 47.515625 
Q 32.71875 49.46875 32.078125 51.25 
Q 31.453125 53.03125 30.171875 54.34375 
Q 28.90625 55.671875 26.921875 56.421875 
Q 24.953125 57.171875 22.359375 57.171875 
Q 19.53125 57.171875 17.15625 56.3125 
Q 14.796875 55.46875 12.9375 54.484375 
Q 11.078125 53.515625 9.859375 52.65625 
Q 8.640625 51.8125 8.15625 51.8125 
Q 7.8125 51.8125 7.546875 51.921875 
Q 7.28125 52.046875 7.109375 52.40625 
Q 6.9375 52.78125 6.859375 53.4375 
Q 6.78125 54.109375 6.78125 55.171875 
Q 6.78125 55.90625 6.828125 56.46875 
Q 6.890625 57.03125 7.03125 57.4375 
Q 7.171875 57.859375 7.359375 58.203125 
Q 7.5625 58.546875 8.03125 59 
Q 8.5 59.46875 9.90625 60.34375 
Q 11.328125 61.234375 13.40625 62.078125 
Q 15.484375 62.9375 18.1875 63.515625 
Q 20.90625 64.109375 24.03125 64.109375 
Q 28.421875 64.109375 31.734375 62.984375 
Q 35.0625 61.859375 37.28125 59.8125 
Q 39.5 57.765625 40.59375 54.90625 
Q 41.703125 52.046875 41.703125 48.578125 
Q 41.703125 45.609375 40.921875 43.046875 
Q 40.140625 40.484375 38.625 38.5 
Q 37.109375 36.53125 34.90625 35.125 
Q 32.71875 33.734375 29.828125 33.203125 
L 29.828125 33.109375 
Q 33.109375 32.765625 35.8125 31.46875 
Q 38.53125 30.171875 40.484375 28.21875 
Q 42.4375 26.265625 43.53125 23.65625 
Q 44.625 21.046875 44.625 18.0625 
z
" id="Calibri-51"/>
       </defs>
       <use xlink:href="#Calibri-49"/>
       <use x="50.683594" xlink:href="#Calibri-51"/>
       <use x="101.367188" xlink:href="#Calibri-46"/>
       <use x="126.611328" xlink:href="#Calibri-48"/>
      </g>
     </g>
    </g>
    <g id="xtick_7">
     <g id="text_7">
      <!-- 14.0 -->
      <g style="fill:#262626;" transform="translate(1344.667344 665.686016)scale(0.385 -0.385)">
       <defs>
        <path d="M 47.796875 17.96875 
Q 47.796875 16.359375 47.3125 15.421875 
Q 46.828125 14.5 45.953125 14.5 
L 38.8125 14.5 
L 38.8125 1.21875 
Q 38.8125 0.828125 38.609375 0.5625 
Q 38.421875 0.296875 37.9375 0.09375 
Q 37.453125 -0.09375 36.671875 -0.1875 
Q 35.890625 -0.296875 34.671875 -0.296875 
Q 33.5 -0.296875 32.71875 -0.1875 
Q 31.9375 -0.09375 31.46875 0.09375 
Q 31 0.296875 30.828125 0.5625 
Q 30.671875 0.828125 30.671875 1.21875 
L 30.671875 14.5 
L 4.59375 14.5 
Q 4 14.5 3.609375 14.640625 
Q 3.21875 14.796875 2.90625 15.1875 
Q 2.59375 15.578125 2.46875 16.3125 
Q 2.34375 17.046875 2.34375 18.21875 
Q 2.34375 19.140625 2.390625 19.875 
Q 2.4375 20.609375 2.578125 21.21875 
Q 2.734375 21.828125 2.96875 22.390625 
Q 3.21875 22.953125 3.5625 23.578125 
L 26.3125 61.96875 
Q 26.5625 62.359375 27.015625 62.640625 
Q 27.484375 62.9375 28.21875 63.125 
Q 28.953125 63.328125 30.03125 63.40625 
Q 31.109375 63.484375 32.5625 63.484375 
Q 34.1875 63.484375 35.375 63.359375 
Q 36.578125 63.234375 37.296875 63.03125 
Q 38.03125 62.84375 38.421875 62.515625 
Q 38.8125 62.203125 38.8125 61.765625 
L 38.8125 21.4375 
L 45.953125 21.4375 
Q 46.78125 21.4375 47.28125 20.578125 
Q 47.796875 19.734375 47.796875 17.96875 
z
M 30.671875 56.109375 
L 30.5625 56.109375 
L 10.015625 21.4375 
L 30.671875 21.4375 
z
" id="Calibri-52"/>
       </defs>
       <use xlink:href="#Calibri-49"/>
       <use x="50.683594" xlink:href="#Calibri-52"/>
       <use x="101.367188" xlink:href="#Calibri-46"/>
       <use x="126.611328" xlink:href="#Calibri-48"/>
      </g>
     </g>
    </g>
    <g id="xtick_8">
     <g id="text_8">
      <!-- 15.0 -->
      <g style="fill:#262626;" transform="translate(1480.567344 665.686016)scale(0.385 -0.385)">
       <defs>
        <path d="M 44.828125 20.3125 
Q 44.828125 15.234375 43.109375 11.28125 
Q 41.40625 7.328125 38.28125 4.609375 
Q 35.15625 1.90625 30.828125 0.484375 
Q 26.515625 -0.921875 21.234375 -0.921875 
Q 18.3125 -0.921875 15.671875 -0.5 
Q 13.03125 -0.09375 10.984375 0.515625 
Q 8.9375 1.125 7.609375 1.703125 
Q 6.296875 2.296875 5.921875 2.640625 
Q 5.5625 2.984375 5.421875 3.265625 
Q 5.28125 3.5625 5.15625 3.96875 
Q 5.03125 4.390625 4.984375 5.03125 
Q 4.9375 5.671875 4.9375 6.546875 
Q 4.9375 7.375 5 8.03125 
Q 5.078125 8.6875 5.265625 9.09375 
Q 5.46875 9.515625 5.734375 9.703125 
Q 6 9.90625 6.34375 9.90625 
Q 6.84375 9.90625 7.859375 9.296875 
Q 8.890625 8.6875 10.625 7.984375 
Q 12.359375 7.28125 14.921875 6.640625 
Q 17.484375 6 21 6 
Q 24.265625 6 27 6.78125 
Q 29.734375 7.5625 31.703125 9.21875 
Q 33.6875 10.890625 34.8125 13.40625 
Q 35.9375 15.921875 35.9375 19.53125 
Q 35.9375 22.5625 34.984375 24.875 
Q 34.03125 27.203125 32.046875 28.734375 
Q 30.078125 30.28125 27.046875 31.03125 
Q 24.03125 31.78125 19.828125 31.78125 
Q 16.84375 31.78125 14.6875 31.484375 
Q 12.546875 31.203125 10.6875 31.203125 
Q 9.328125 31.203125 8.734375 31.828125 
Q 8.15625 32.46875 8.15625 34.28125 
L 8.15625 60.015625 
Q 8.15625 61.625 8.90625 62.40625 
Q 9.671875 63.1875 11.078125 63.1875 
L 39.0625 63.1875 
Q 39.453125 63.1875 39.8125 62.96875 
Q 40.1875 62.75 40.421875 62.296875 
Q 40.671875 61.859375 40.796875 61.171875 
Q 40.921875 60.5 40.921875 59.578125 
Q 40.921875 57.8125 40.421875 56.828125 
Q 39.9375 55.859375 39.0625 55.859375 
L 15.484375 55.859375 
L 15.484375 38.140625 
Q 17.1875 38.375 18.96875 38.421875 
Q 20.75 38.484375 23.09375 38.484375 
Q 28.515625 38.484375 32.5625 37.1875 
Q 36.625 35.890625 39.328125 33.515625 
Q 42.046875 31.15625 43.4375 27.78125 
Q 44.828125 24.421875 44.828125 20.3125 
z
" id="Calibri-53"/>
       </defs>
       <use xlink:href="#Calibri-49"/>
       <use x="50.683594" xlink:href="#Calibri-53"/>
       <use x="101.367188" xlink:href="#Calibri-46"/>
       <use x="126.611328" xlink:href="#Calibri-48"/>
      </g>
     </g>
    </g>
    <g id="xtick_9">
     <g id="text_9">
      <!-- 16.0 -->
      <g style="fill:#262626;" transform="translate(1616.467344 665.686016)scale(0.385 -0.385)">
       <defs>
        <path d="M 46.734375 20.453125 
Q 46.734375 16.3125 45.453125 12.421875 
Q 44.1875 8.546875 41.546875 5.59375 
Q 38.921875 2.640625 34.859375 0.859375 
Q 30.8125 -0.921875 25.296875 -0.921875 
Q 21.34375 -0.921875 18.3125 0.046875 
Q 15.28125 1.03125 13.03125 2.828125 
Q 10.796875 4.640625 9.296875 7.265625 
Q 7.8125 9.90625 6.90625 13.28125 
Q 6 16.65625 5.609375 20.65625 
Q 5.21875 24.65625 5.21875 29.25 
Q 5.21875 33.296875 5.65625 37.453125 
Q 6.109375 41.609375 7.21875 45.453125 
Q 8.34375 49.3125 10.265625 52.703125 
Q 12.203125 56.109375 15.109375 58.625 
Q 18.015625 61.140625 22.0625 62.59375 
Q 26.125 64.0625 31.5 64.0625 
Q 33.296875 64.0625 35.15625 63.84375 
Q 37.015625 63.625 38.578125 63.25 
Q 40.140625 62.890625 41.203125 62.453125 
Q 42.28125 62.015625 42.625 61.734375 
Q 42.96875 61.46875 43.140625 61.15625 
Q 43.3125 60.84375 43.40625 60.46875 
Q 43.5 60.109375 43.546875 59.640625 
Q 43.609375 59.1875 43.609375 58.5 
Q 43.609375 57.625 43.578125 56.984375 
Q 43.5625 56.34375 43.390625 55.953125 
Q 43.21875 55.5625 42.9375 55.359375 
Q 42.671875 55.171875 42.234375 55.171875 
Q 41.703125 55.171875 40.765625 55.515625 
Q 39.84375 55.859375 38.515625 56.265625 
Q 37.203125 56.6875 35.328125 57.03125 
Q 33.453125 57.375 30.953125 57.375 
Q 26.421875 57.375 23.140625 55.515625 
Q 19.875 53.65625 17.796875 50.53125 
Q 15.71875 47.40625 14.71875 43.28125 
Q 13.71875 39.15625 13.578125 34.671875 
Q 14.84375 35.40625 16.421875 36.125 
Q 18.015625 36.859375 19.890625 37.4375 
Q 21.78125 38.03125 23.875 38.390625 
Q 25.984375 38.765625 28.375 38.765625 
Q 33.5 38.765625 37.015625 37.375 
Q 40.53125 35.984375 42.703125 33.515625 
Q 44.875 31.0625 45.796875 27.703125 
Q 46.734375 24.359375 46.734375 20.453125 
z
M 38.234375 19.671875 
Q 38.234375 22.515625 37.671875 24.828125 
Q 37.109375 27.15625 35.78125 28.765625 
Q 34.46875 30.375 32.265625 31.25 
Q 30.078125 32.125 26.859375 32.125 
Q 25.046875 32.125 23.234375 31.8125 
Q 21.4375 31.5 19.75 30.9375 
Q 18.0625 30.375 16.515625 29.609375 
Q 14.984375 28.859375 13.71875 27.984375 
Q 13.71875 21.6875 14.515625 17.4375 
Q 15.328125 13.1875 16.859375 10.625 
Q 18.40625 8.0625 20.703125 6.953125 
Q 23 5.859375 26.078125 5.859375 
Q 29.203125 5.859375 31.5 7.03125 
Q 33.796875 8.203125 35.296875 10.171875 
Q 36.8125 12.15625 37.515625 14.625 
Q 38.234375 17.09375 38.234375 19.671875 
z
" id="Calibri-54"/>
       </defs>
       <use xlink:href="#Calibri-49"/>
       <use x="50.683594" xlink:href="#Calibri-54"/>
       <use x="101.367188" xlink:href="#Calibri-46"/>
       <use x="126.611328" xlink:href="#Calibri-48"/>
      </g>
     </g>
    </g>
    <g id="text_10">
     <!-- NNB_radius -->
     <g style="fill:#262626;" transform="translate(1005.524063 705.078672)scale(0.42 -0.42)">
      <defs>
       <path d="M 56.15625 3.46875 
Q 56.15625 2.484375 55.828125 1.796875 
Q 55.515625 1.125 55 0.6875 
Q 54.5 0.25 53.859375 0.046875 
Q 53.21875 -0.140625 52.59375 -0.140625 
L 49.90625 -0.140625 
Q 48.640625 -0.140625 47.6875 0.125 
Q 46.734375 0.390625 45.875 1.09375 
Q 45.015625 1.8125 44.15625 3.03125 
Q 43.3125 4.25 42.28125 6.15625 
L 22.359375 42.09375 
Q 20.796875 44.875 19.203125 47.921875 
Q 17.625 50.984375 16.265625 53.859375 
L 16.15625 53.859375 
Q 16.265625 50.34375 16.3125 46.671875 
Q 16.359375 43.015625 16.359375 39.40625 
L 16.359375 1.265625 
Q 16.359375 0.921875 16.15625 0.609375 
Q 15.96875 0.296875 15.5 0.125 
Q 15.046875 -0.046875 14.28125 -0.171875 
Q 13.53125 -0.296875 12.359375 -0.296875 
Q 11.1875 -0.296875 10.421875 -0.171875 
Q 9.671875 -0.046875 9.234375 0.125 
Q 8.796875 0.296875 8.59375 0.609375 
Q 8.40625 0.921875 8.40625 1.265625 
L 8.40625 59.578125 
Q 8.40625 61.53125 9.46875 62.359375 
Q 10.546875 63.1875 11.8125 63.1875 
L 15.828125 63.1875 
Q 17.234375 63.1875 18.1875 62.9375 
Q 19.140625 62.703125 19.890625 62.140625 
Q 20.65625 61.578125 21.359375 60.578125 
Q 22.078125 59.578125 22.90625 58.0625 
L 38.234375 30.328125 
Q 39.65625 27.78125 40.96875 25.359375 
Q 42.28125 22.953125 43.5 20.609375 
Q 44.734375 18.265625 45.921875 15.984375 
Q 47.125 13.71875 48.296875 11.421875 
L 48.34375 11.421875 
Q 48.25 15.28125 48.21875 19.453125 
Q 48.1875 23.640625 48.1875 27.484375 
L 48.1875 61.765625 
Q 48.1875 62.109375 48.375 62.40625 
Q 48.578125 62.703125 49.046875 62.921875 
Q 49.515625 63.140625 50.265625 63.234375 
Q 51.03125 63.328125 52.25 63.328125 
Q 53.328125 63.328125 54.109375 63.234375 
Q 54.890625 63.140625 55.328125 62.921875 
Q 55.765625 62.703125 55.953125 62.40625 
Q 56.15625 62.109375 56.15625 61.765625 
z
" id="Calibri-78"/>
       <path d="M 50.046875 18.109375 
Q 50.046875 15.140625 49.28125 12.625 
Q 48.53125 10.109375 47.15625 8.109375 
Q 45.796875 6.109375 43.859375 4.59375 
Q 41.9375 3.078125 39.515625 2.046875 
Q 37.109375 1.03125 34.34375 0.515625 
Q 31.59375 0 28.03125 0 
L 11.53125 0 
Q 10.40625 0 9.40625 0.75 
Q 8.40625 1.515625 8.40625 3.421875 
L 8.40625 59.765625 
Q 8.40625 61.671875 9.40625 62.421875 
Q 10.40625 63.1875 11.53125 63.1875 
L 25.875 63.1875 
Q 31.546875 63.1875 35.15625 62.109375 
Q 38.765625 61.03125 41.1875 58.984375 
Q 43.609375 56.9375 44.828125 53.953125 
Q 46.046875 50.984375 46.046875 47.21875 
Q 46.046875 44.96875 45.5 42.921875 
Q 44.96875 40.875 43.921875 39.140625 
Q 42.875 37.40625 41.28125 36.03125 
Q 39.703125 34.671875 37.640625 33.796875 
Q 40.234375 33.296875 42.484375 32 
Q 44.734375 30.71875 46.40625 28.703125 
Q 48.09375 26.703125 49.0625 24.015625 
Q 50.046875 21.34375 50.046875 18.109375 
z
M 37.40625 46.390625 
Q 37.40625 48.6875 36.765625 50.53125 
Q 36.140625 52.390625 34.765625 53.6875 
Q 33.40625 54.984375 31.203125 55.65625 
Q 29 56.34375 25.390625 56.34375 
L 16.703125 56.34375 
L 16.703125 35.890625 
L 26.265625 35.890625 
Q 29.546875 35.890625 31.546875 36.734375 
Q 33.546875 37.59375 34.859375 39.03125 
Q 36.1875 40.484375 36.796875 42.40625 
Q 37.40625 44.34375 37.40625 46.390625 
z
M 41.21875 17.625 
Q 41.21875 20.453125 40.3125 22.59375 
Q 39.40625 24.75 37.671875 26.21875 
Q 35.9375 27.6875 33.328125 28.4375 
Q 30.71875 29.203125 26.765625 29.203125 
L 16.703125 29.203125 
L 16.703125 6.9375 
L 28.90625 6.9375 
Q 31.78125 6.9375 33.921875 7.609375 
Q 36.078125 8.296875 37.71875 9.640625 
Q 39.359375 10.984375 40.28125 12.984375 
Q 41.21875 14.984375 41.21875 17.625 
z
" id="Calibri-66"/>
       <path d="M 50 -14.546875 
Q 50 -16.265625 49.609375 -17.046875 
Q 49.21875 -17.828125 48.390625 -17.828125 
L 1.375 -17.828125 
Q 0.53125 -17.828125 0.09375 -17.09375 
Q -0.34375 -16.359375 -0.34375 -14.65625 
Q -0.34375 -12.984375 0.09375 -12.15625 
Q 0.53125 -11.328125 1.375 -11.328125 
L 48.390625 -11.328125 
Q 49.171875 -11.328125 49.578125 -12.109375 
Q 50 -12.890625 50 -14.546875 
z
" id="Calibri-95"/>
       <path d="M 33.15625 42.28125 
Q 33.15625 41.21875 33.109375 40.484375 
Q 33.0625 39.75 32.90625 39.328125 
Q 32.765625 38.921875 32.546875 38.703125 
Q 32.328125 38.484375 31.9375 38.484375 
Q 31.546875 38.484375 30.984375 38.703125 
Q 30.421875 38.921875 29.703125 39.140625 
Q 29 39.359375 28.125 39.546875 
Q 27.25 39.75 26.21875 39.75 
Q 25 39.75 23.828125 39.25 
Q 22.65625 38.765625 21.359375 37.640625 
Q 20.0625 36.53125 18.640625 34.671875 
Q 17.234375 32.8125 15.53125 30.125 
L 15.53125 1.21875 
Q 15.53125 0.828125 15.328125 0.5625 
Q 15.140625 0.296875 14.703125 0.09375 
Q 14.265625 -0.09375 13.484375 -0.1875 
Q 12.703125 -0.296875 11.46875 -0.296875 
Q 10.296875 -0.296875 9.515625 -0.1875 
Q 8.734375 -0.09375 8.265625 0.09375 
Q 7.8125 0.296875 7.640625 0.5625 
Q 7.46875 0.828125 7.46875 1.21875 
L 7.46875 45.171875 
Q 7.46875 45.5625 7.609375 45.828125 
Q 7.765625 46.09375 8.203125 46.3125 
Q 8.640625 46.53125 9.328125 46.609375 
Q 10.015625 46.6875 11.140625 46.6875 
Q 12.203125 46.6875 12.90625 46.609375 
Q 13.625 46.53125 14.015625 46.3125 
Q 14.40625 46.09375 14.578125 45.828125 
Q 14.75 45.5625 14.75 45.171875 
L 14.75 38.765625 
Q 16.546875 41.40625 18.140625 43.0625 
Q 19.734375 44.734375 21.140625 45.671875 
Q 22.5625 46.625 23.953125 46.984375 
Q 25.34375 47.359375 26.765625 47.359375 
Q 27.390625 47.359375 28.1875 47.28125 
Q 29 47.21875 29.875 47.015625 
Q 30.765625 46.828125 31.46875 46.578125 
Q 32.171875 46.34375 32.46875 46.09375 
Q 32.765625 45.84375 32.859375 45.625 
Q 32.953125 45.40625 33.03125 45.0625 
Q 33.109375 44.734375 33.125 44.0625 
Q 33.15625 43.40625 33.15625 42.28125 
z
" id="Calibri-114"/>
       <path d="M 40.578125 1.171875 
Q 40.578125 0.59375 40.1875 0.296875 
Q 39.796875 0 39.109375 -0.140625 
Q 38.421875 -0.296875 37.109375 -0.296875 
Q 35.84375 -0.296875 35.078125 -0.140625 
Q 34.328125 0 33.984375 0.296875 
Q 33.640625 0.59375 33.640625 1.171875 
L 33.640625 5.5625 
Q 30.765625 2.484375 27.21875 0.78125 
Q 23.6875 -0.921875 19.734375 -0.921875 
Q 16.265625 -0.921875 13.453125 -0.015625 
Q 10.640625 0.875 8.65625 2.578125 
Q 6.6875 4.296875 5.59375 6.78125 
Q 4.5 9.28125 4.5 12.453125 
Q 4.5 16.15625 6 18.890625 
Q 7.515625 21.625 10.34375 23.4375 
Q 13.1875 25.25 17.28125 26.140625 
Q 21.390625 27.046875 26.515625 27.046875 
L 32.5625 27.046875 
L 32.5625 30.46875 
Q 32.5625 33.015625 32.03125 34.96875 
Q 31.5 36.921875 30.296875 38.203125 
Q 29.109375 39.5 27.203125 40.15625 
Q 25.296875 40.828125 22.515625 40.828125 
Q 19.53125 40.828125 17.15625 40.109375 
Q 14.796875 39.40625 13.015625 38.546875 
Q 11.234375 37.703125 10.03125 36.984375 
Q 8.84375 36.28125 8.25 36.28125 
Q 7.859375 36.28125 7.5625 36.46875 
Q 7.28125 36.671875 7.0625 37.0625 
Q 6.84375 37.453125 6.734375 38.0625 
Q 6.640625 38.671875 6.640625 39.40625 
Q 6.640625 40.625 6.8125 41.328125 
Q 6.984375 42.046875 7.640625 42.671875 
Q 8.296875 43.3125 9.90625 44.15625 
Q 11.53125 45.015625 13.625 45.71875 
Q 15.71875 46.4375 18.203125 46.890625 
Q 20.703125 47.359375 23.25 47.359375 
Q 27.984375 47.359375 31.296875 46.28125 
Q 34.625 45.21875 36.671875 43.140625 
Q 38.71875 41.0625 39.640625 37.984375 
Q 40.578125 34.90625 40.578125 30.8125 
z
M 32.5625 21.234375 
L 25.6875 21.234375 
Q 22.359375 21.234375 19.921875 20.671875 
Q 17.484375 20.125 15.875 19.015625 
Q 14.265625 17.921875 13.5 16.375 
Q 12.75 14.84375 12.75 12.84375 
Q 12.75 9.421875 14.921875 7.390625 
Q 17.09375 5.375 21 5.375 
Q 24.171875 5.375 26.875 6.984375 
Q 29.59375 8.59375 32.5625 11.921875 
z
" id="Calibri-97"/>
       <path d="M 45.125 1.21875 
Q 45.125 0.828125 44.953125 0.53125 
Q 44.78125 0.25 44.359375 0.078125 
Q 43.953125 -0.09375 43.265625 -0.1875 
Q 42.578125 -0.296875 41.609375 -0.296875 
Q 40.578125 -0.296875 39.890625 -0.1875 
Q 39.203125 -0.09375 38.765625 0.078125 
Q 38.328125 0.25 38.125 0.53125 
Q 37.9375 0.828125 37.9375 1.21875 
L 37.9375 7.03125 
Q 34.46875 3.265625 30.734375 1.171875 
Q 27 -0.921875 22.5625 -0.921875 
Q 17.71875 -0.921875 14.296875 0.953125 
Q 10.890625 2.828125 8.765625 6.03125 
Q 6.640625 9.234375 5.65625 13.546875 
Q 4.6875 17.875 4.6875 22.65625 
Q 4.6875 28.328125 5.90625 32.890625 
Q 7.125 37.453125 9.515625 40.671875 
Q 11.921875 43.890625 15.453125 45.625 
Q 19 47.359375 23.640625 47.359375 
Q 27.484375 47.359375 30.6875 45.671875 
Q 33.890625 44 37.015625 40.71875 
L 37.015625 66.265625 
Q 37.015625 66.609375 37.1875 66.921875 
Q 37.359375 67.234375 37.84375 67.40625 
Q 38.328125 67.578125 39.078125 67.703125 
Q 39.84375 67.828125 41.015625 67.828125 
Q 42.234375 67.828125 43.015625 67.703125 
Q 43.796875 67.578125 44.234375 67.40625 
Q 44.671875 67.234375 44.890625 66.921875 
Q 45.125 66.609375 45.125 66.265625 
z
M 37.015625 32.125 
Q 33.734375 36.1875 30.6875 38.3125 
Q 27.640625 40.4375 24.3125 40.4375 
Q 21.234375 40.4375 19.078125 38.96875 
Q 16.9375 37.5 15.59375 35.109375 
Q 14.265625 32.71875 13.640625 29.6875 
Q 13.03125 26.65625 13.03125 23.53125 
Q 13.03125 20.21875 13.546875 17.046875 
Q 14.0625 13.875 15.328125 11.40625 
Q 16.609375 8.9375 18.703125 7.4375 
Q 20.796875 5.953125 23.96875 5.953125 
Q 25.59375 5.953125 27.078125 6.390625 
Q 28.5625 6.84375 30.125 7.859375 
Q 31.6875 8.890625 33.390625 10.515625 
Q 35.109375 12.15625 37.015625 14.546875 
z
" id="Calibri-100"/>
       <path d="M 15.53125 1.21875 
Q 15.53125 0.828125 15.328125 0.5625 
Q 15.140625 0.296875 14.703125 0.09375 
Q 14.265625 -0.09375 13.484375 -0.1875 
Q 12.703125 -0.296875 11.46875 -0.296875 
Q 10.296875 -0.296875 9.515625 -0.1875 
Q 8.734375 -0.09375 8.265625 0.09375 
Q 7.8125 0.296875 7.640625 0.5625 
Q 7.46875 0.828125 7.46875 1.21875 
L 7.46875 45.171875 
Q 7.46875 45.515625 7.640625 45.796875 
Q 7.8125 46.09375 8.265625 46.28125 
Q 8.734375 46.484375 9.515625 46.578125 
Q 10.296875 46.6875 11.46875 46.6875 
Q 12.703125 46.6875 13.484375 46.578125 
Q 14.265625 46.484375 14.703125 46.28125 
Q 15.140625 46.09375 15.328125 45.796875 
Q 15.53125 45.515625 15.53125 45.171875 
z
M 16.453125 60.015625 
Q 16.453125 57.171875 15.375 56.140625 
Q 14.3125 55.125 11.421875 55.125 
Q 8.59375 55.125 7.546875 56.125 
Q 6.5 57.125 6.5 59.90625 
Q 6.5 62.75 7.5625 63.765625 
Q 8.640625 64.796875 11.53125 64.796875 
Q 14.359375 64.796875 15.40625 63.796875 
Q 16.453125 62.796875 16.453125 60.015625 
z
" id="Calibri-105"/>
       <path d="M 45.125 1.21875 
Q 45.125 0.828125 44.953125 0.5625 
Q 44.78125 0.296875 44.328125 0.09375 
Q 43.890625 -0.09375 43.1875 -0.1875 
Q 42.484375 -0.296875 41.453125 -0.296875 
Q 40.328125 -0.296875 39.625 -0.1875 
Q 38.921875 -0.09375 38.5 0.09375 
Q 38.09375 0.296875 37.9375 0.5625 
Q 37.796875 0.828125 37.796875 1.21875 
L 37.796875 7.03125 
Q 34.03125 2.875 30.359375 0.96875 
Q 26.703125 -0.921875 22.953125 -0.921875 
Q 18.5625 -0.921875 15.546875 0.53125 
Q 12.546875 2 10.6875 4.515625 
Q 8.84375 7.03125 8.03125 10.375 
Q 7.234375 13.71875 7.234375 18.5 
L 7.234375 45.171875 
Q 7.234375 45.5625 7.390625 45.828125 
Q 7.5625 46.09375 8.046875 46.3125 
Q 8.546875 46.53125 9.328125 46.609375 
Q 10.109375 46.6875 11.28125 46.6875 
Q 12.453125 46.6875 13.234375 46.609375 
Q 14.015625 46.53125 14.46875 46.3125 
Q 14.9375 46.09375 15.125 45.828125 
Q 15.328125 45.5625 15.328125 45.171875 
L 15.328125 19.578125 
Q 15.328125 15.71875 15.890625 13.390625 
Q 16.453125 11.078125 17.59375 9.4375 
Q 18.75 7.8125 20.5 6.90625 
Q 22.265625 6 24.609375 6 
Q 27.640625 6 30.640625 8.140625 
Q 33.640625 10.296875 37.015625 14.453125 
L 37.015625 45.171875 
Q 37.015625 45.5625 37.1875 45.828125 
Q 37.359375 46.09375 37.84375 46.3125 
Q 38.328125 46.53125 39.078125 46.609375 
Q 39.84375 46.6875 41.0625 46.6875 
Q 42.234375 46.6875 43.015625 46.609375 
Q 43.796875 46.53125 44.234375 46.3125 
Q 44.671875 46.09375 44.890625 45.828125 
Q 45.125 45.5625 45.125 45.171875 
z
" id="Calibri-117"/>
       <path d="M 35.0625 13.1875 
Q 35.0625 9.8125 33.8125 7.171875 
Q 32.5625 4.546875 30.265625 2.734375 
Q 27.984375 0.921875 24.796875 0 
Q 21.625 -0.921875 17.828125 -0.921875 
Q 15.484375 -0.921875 13.359375 -0.5625 
Q 11.234375 -0.203125 9.546875 0.359375 
Q 7.859375 0.921875 6.6875 1.53125 
Q 5.515625 2.15625 4.96875 2.640625 
Q 4.4375 3.125 4.1875 4 
Q 3.953125 4.890625 3.953125 6.390625 
Q 3.953125 7.328125 4.046875 7.953125 
Q 4.15625 8.59375 4.296875 8.984375 
Q 4.4375 9.375 4.703125 9.546875 
Q 4.984375 9.71875 5.328125 9.71875 
Q 5.859375 9.71875 6.90625 9.0625 
Q 7.953125 8.40625 9.484375 7.625 
Q 11.03125 6.84375 13.125 6.171875 
Q 15.234375 5.515625 17.96875 5.515625 
Q 20.015625 5.515625 21.671875 5.953125 
Q 23.34375 6.390625 24.5625 7.25 
Q 25.78125 8.109375 26.4375 9.421875 
Q 27.09375 10.75 27.09375 12.546875 
Q 27.09375 14.40625 26.140625 15.671875 
Q 25.203125 16.9375 23.640625 17.90625 
Q 22.078125 18.890625 20.125 19.640625 
Q 18.171875 20.40625 16.09375 21.234375 
Q 14.015625 22.078125 12.03125 23.125 
Q 10.0625 24.171875 8.5 25.6875 
Q 6.9375 27.203125 5.984375 29.296875 
Q 5.03125 31.390625 5.03125 34.328125 
Q 5.03125 36.921875 6.03125 39.28125 
Q 7.03125 41.65625 9.03125 43.4375 
Q 11.03125 45.21875 14.03125 46.28125 
Q 17.046875 47.359375 21.046875 47.359375 
Q 22.796875 47.359375 24.546875 47.0625 
Q 26.3125 46.78125 27.734375 46.34375 
Q 29.15625 45.90625 30.15625 45.390625 
Q 31.15625 44.875 31.65625 44.484375 
Q 32.171875 44.09375 32.34375 43.796875 
Q 32.515625 43.5 32.59375 43.140625 
Q 32.671875 42.78125 32.734375 42.234375 
Q 32.8125 41.703125 32.8125 40.921875 
Q 32.8125 40.09375 32.734375 39.484375 
Q 32.671875 38.875 32.5 38.484375 
Q 32.328125 38.09375 32.078125 37.921875 
Q 31.84375 37.75 31.546875 37.75 
Q 31.109375 37.75 30.265625 38.28125 
Q 29.4375 38.8125 28.125 39.421875 
Q 26.8125 40.046875 25.03125 40.578125 
Q 23.25 41.109375 20.953125 41.109375 
Q 18.890625 41.109375 17.328125 40.640625 
Q 15.765625 40.1875 14.765625 39.328125 
Q 13.765625 38.484375 13.25 37.3125 
Q 12.75 36.140625 12.75 34.765625 
Q 12.75 32.859375 13.71875 31.5625 
Q 14.703125 30.28125 16.265625 29.296875 
Q 17.828125 28.328125 19.828125 27.546875 
Q 21.828125 26.765625 23.90625 25.921875 
Q 25.984375 25.09375 28 24.0625 
Q 30.03125 23.046875 31.59375 21.578125 
Q 33.15625 20.125 34.109375 18.0625 
Q 35.0625 16.015625 35.0625 13.1875 
z
" id="Calibri-115"/>
      </defs>
      <use xlink:href="#Calibri-78"/>
      <use x="64.550781" xlink:href="#Calibri-78"/>
      <use x="129.101562" xlink:href="#Calibri-66"/>
      <use x="183.496094" xlink:href="#Calibri-95"/>
      <use x="233.300781" xlink:href="#Calibri-114"/>
      <use x="268.164062" xlink:href="#Calibri-97"/>
      <use x="316.064453" xlink:href="#Calibri-100"/>
      <use x="368.603516" xlink:href="#Calibri-105"/>
      <use x="391.552734" xlink:href="#Calibri-117"/>
      <use x="444.091797" xlink:href="#Calibri-115"/>
     </g>
    </g>
   </g>
   <g id="matplotlib.axis_2">
    <g id="ytick_1">
     <g id="text_11">
      <!-- 3.0 -->
      <g style="fill:#262626;" transform="translate(479.104219 597.707617)rotate(-90)scale(0.385 -0.385)">
       <use xlink:href="#Calibri-51"/>
       <use x="50.683594" xlink:href="#Calibri-46"/>
       <use x="75.927734" xlink:href="#Calibri-48"/>
      </g>
     </g>
    </g>
    <g id="ytick_2">
     <g id="text_12">
      <!-- 4.0 -->
      <g style="fill:#262626;" transform="translate(479.104219 461.807617)rotate(-90)scale(0.385 -0.385)">
       <use xlink:href="#Calibri-52"/>
       <use x="50.683594" xlink:href="#Calibri-46"/>
       <use x="75.927734" xlink:href="#Calibri-48"/>
      </g>
     </g>
    </g>
    <g id="ytick_3">
     <g id="text_13">
      <!-- 5.0 -->
      <g style="fill:#262626;" transform="translate(479.104219 325.907617)rotate(-90)scale(0.385 -0.385)">
       <use xlink:href="#Calibri-53"/>
       <use x="50.683594" xlink:href="#Calibri-46"/>
       <use x="75.927734" xlink:href="#Calibri-48"/>
      </g>
     </g>
    </g>
    <g id="ytick_4">
     <g id="text_14">
      <!-- 6.0 -->
      <g style="fill:#262626;" transform="translate(479.104219 190.007617)rotate(-90)scale(0.385 -0.385)">
       <use xlink:href="#Calibri-54"/>
       <use x="50.683594" xlink:href="#Calibri-46"/>
       <use x="75.927734" xlink:href="#Calibri-48"/>
      </g>
     </g>
    </g>
    <g id="text_15">
     <!-- N5_radius -->
     <g style="fill:#262626;" transform="translate(441.430391 445.343437)rotate(-90)scale(0.42 -0.42)">
      <use xlink:href="#Calibri-78"/>
      <use x="64.550781" xlink:href="#Calibri-53"/>
      <use x="115.234375" xlink:href="#Calibri-95"/>
      <use x="165.039062" xlink:href="#Calibri-114"/>
      <use x="199.902344" xlink:href="#Calibri-97"/>
      <use x="247.802734" xlink:href="#Calibri-100"/>
      <use x="300.341797" xlink:href="#Calibri-105"/>
      <use x="323.291016" xlink:href="#Calibri-117"/>
      <use x="375.830078" xlink:href="#Calibri-115"/>
     </g>
    </g>
   </g>
   <g id="QuadMesh_1">
    <path clip-path="url(#p5d9d2ef9dd)" d="M 495.45 630 
L 631.35 630 
L 631.35 494.1 
L 495.45 494.1 
L 495.45 630 
" style="fill:#ffb8b8;stroke:#ffffff;stroke-width:0.3;"/>
    <path clip-path="url(#p5d9d2ef9dd)" d="M 631.35 630 
L 767.25 630 
L 767.25 494.1 
L 631.35 494.1 
L 631.35 630 
" style="fill:#ffe4e4;stroke:#ffffff;stroke-width:0.3;"/>
    <path clip-path="url(#p5d9d2ef9dd)" d="M 767.25 630 
L 903.15 630 
L 903.15 494.1 
L 767.25 494.1 
L 767.25 630 
" style="fill:#fff4f4;stroke:#ffffff;stroke-width:0.3;"/>
    <path clip-path="url(#p5d9d2ef9dd)" d="M 903.15 630 
L 1039.05 630 
L 1039.05 494.1 
L 903.15 494.1 
L 903.15 630 
" style="fill:#ffe0e0;stroke:#ffffff;stroke-width:0.3;"/>
    <path clip-path="url(#p5d9d2ef9dd)" d="M 1039.05 630 
L 1174.95 630 
L 1174.95 494.1 
L 1039.05 494.1 
L 1039.05 630 
" style="fill:#ffe0e0;stroke:#ffffff;stroke-width:0.3;"/>
    <path clip-path="url(#p5d9d2ef9dd)" d="M 1174.95 630 
L 1310.85 630 
L 1310.85 494.1 
L 1174.95 494.1 
L 1174.95 630 
" style="fill:#ffdada;stroke:#ffffff;stroke-width:0.3;"/>
    <path clip-path="url(#p5d9d2ef9dd)" d="M 1310.85 630 
L 1446.75 630 
L 1446.75 494.1 
L 1310.85 494.1 
L 1310.85 630 
" style="fill:#ffd2d2;stroke:#ffffff;stroke-width:0.3;"/>
    <path clip-path="url(#p5d9d2ef9dd)" d="M 1446.75 630 
L 1582.65 630 
L 1582.65 494.1 
L 1446.75 494.1 
L 1446.75 630 
" style="fill:#ffd6d6;stroke:#ffffff;stroke-width:0.3;"/>
    <path clip-path="url(#p5d9d2ef9dd)" d="M 1582.65 630 
L 1718.55 630 
L 1718.55 494.1 
L 1582.65 494.1 
L 1582.65 630 
" style="fill:#ffb4b4;stroke:#ffffff;stroke-width:0.3;"/>
    <path clip-path="url(#p5d9d2ef9dd)" d="M 495.45 494.1 
L 631.35 494.1 
L 631.35 358.2 
L 495.45 358.2 
L 495.45 494.1 
" style="fill:#ff2626;stroke:#ffffff;stroke-width:0.3;"/>
    <path clip-path="url(#p5d9d2ef9dd)" d="M 631.35 494.1 
L 767.25 494.1 
L 767.25 358.2 
L 631.35 358.2 
L 631.35 494.1 
" style="fill:#ff7676;stroke:#ffffff;stroke-width:0.3;"/>
    <path clip-path="url(#p5d9d2ef9dd)" d="M 767.25 494.1 
L 903.15 494.1 
L 903.15 358.2 
L 767.25 358.2 
L 767.25 494.1 
" style="fill:#ffcaca;stroke:#ffffff;stroke-width:0.3;"/>
    <path clip-path="url(#p5d9d2ef9dd)" d="M 903.15 494.1 
L 1039.05 494.1 
L 1039.05 358.2 
L 903.15 358.2 
L 903.15 494.1 
" style="fill:#ffb2b2;stroke:#ffffff;stroke-width:0.3;"/>
    <path clip-path="url(#p5d9d2ef9dd)" d="M 1039.05 494.1 
L 1174.95 494.1 
L 1174.95 358.2 
L 1039.05 358.2 
L 1039.05 494.1 
" style="fill:#ffaaaa;stroke:#ffffff;stroke-width:0.3;"/>
    <path clip-path="url(#p5d9d2ef9dd)" d="M 1174.95 494.1 
L 1310.85 494.1 
L 1310.85 358.2 
L 1174.95 358.2 
L 1174.95 494.1 
" style="fill:#ff9090;stroke:#ffffff;stroke-width:0.3;"/>
    <path clip-path="url(#p5d9d2ef9dd)" d="M 1310.85 494.1 
L 1446.75 494.1 
L 1446.75 358.2 
L 1310.85 358.2 
L 1310.85 494.1 
" style="fill:#ff4444;stroke:#ffffff;stroke-width:0.3;"/>
    <path clip-path="url(#p5d9d2ef9dd)" d="M 1446.75 494.1 
L 1582.65 494.1 
L 1582.65 358.2 
L 1446.75 358.2 
L 1446.75 494.1 
" style="fill:#ff2a2a;stroke:#ffffff;stroke-width:0.3;"/>
    <path clip-path="url(#p5d9d2ef9dd)" d="M 1582.65 494.1 
L 1718.55 494.1 
L 1718.55 358.2 
L 1582.65 358.2 
L 1582.65 494.1 
" style="fill:#ff2828;stroke:#ffffff;stroke-width:0.3;"/>
    <path clip-path="url(#p5d9d2ef9dd)" d="M 495.45 358.2 
L 631.35 358.2 
L 631.35 222.3 
L 495.45 222.3 
L 495.45 358.2 
" style="fill:#ff2626;stroke:#ffffff;stroke-width:0.3;"/>
    <path clip-path="url(#p5d9d2ef9dd)" d="M 631.35 358.2 
L 767.25 358.2 
L 767.25 222.3 
L 631.35 222.3 
L 631.35 358.2 
" style="fill:#ff7474;stroke:#ffffff;stroke-width:0.3;"/>
    <path clip-path="url(#p5d9d2ef9dd)" d="M 767.25 358.2 
L 903.15 358.2 
L 903.15 222.3 
L 767.25 222.3 
L 767.25 358.2 
" style="fill:#ffbaba;stroke:#ffffff;stroke-width:0.3;"/>
    <path clip-path="url(#p5d9d2ef9dd)" d="M 903.15 358.2 
L 1039.05 358.2 
L 1039.05 222.3 
L 903.15 222.3 
L 903.15 358.2 
" style="fill:#ffaaaa;stroke:#ffffff;stroke-width:0.3;"/>
    <path clip-path="url(#p5d9d2ef9dd)" d="M 1039.05 358.2 
L 1174.95 358.2 
L 1174.95 222.3 
L 1039.05 222.3 
L 1039.05 358.2 
" style="fill:#ffd0d0;stroke:#ffffff;stroke-width:0.3;"/>
    <path clip-path="url(#p5d9d2ef9dd)" d="M 1174.95 358.2 
L 1310.85 358.2 
L 1310.85 222.3 
L 1174.95 222.3 
L 1174.95 358.2 
" style="fill:#ff9a9a;stroke:#ffffff;stroke-width:0.3;"/>
    <path clip-path="url(#p5d9d2ef9dd)" d="M 1310.85 358.2 
L 1446.75 358.2 
L 1446.75 222.3 
L 1310.85 222.3 
L 1310.85 358.2 
" style="fill:#ff4c4c;stroke:#ffffff;stroke-width:0.3;"/>
    <path clip-path="url(#p5d9d2ef9dd)" d="M 1446.75 358.2 
L 1582.65 358.2 
L 1582.65 222.3 
L 1446.75 222.3 
L 1446.75 358.2 
" style="fill:#ff3030;stroke:#ffffff;stroke-width:0.3;"/>
    <path clip-path="url(#p5d9d2ef9dd)" d="M 1582.65 358.2 
L 1718.55 358.2 
L 1718.55 222.3 
L 1582.65 222.3 
L 1582.65 358.2 
" style="fill:#ff3636;stroke:#ffffff;stroke-width:0.3;"/>
    <path clip-path="url(#p5d9d2ef9dd)" d="M 495.45 222.3 
L 631.35 222.3 
L 631.35 86.4 
L 495.45 86.4 
L 495.45 222.3 
" style="fill:#ff7474;stroke:#ffffff;stroke-width:0.3;"/>
    <path clip-path="url(#p5d9d2ef9dd)" d="M 631.35 222.3 
L 767.25 222.3 
L 767.25 86.4 
L 631.35 86.4 
L 631.35 222.3 
" style="fill:#ffa2a2;stroke:#ffffff;stroke-width:0.3;"/>
    <path clip-path="url(#p5d9d2ef9dd)" d="M 767.25 222.3 
L 903.15 222.3 
L 903.15 86.4 
L 767.25 86.4 
L 767.25 222.3 
" style="fill:#ffb0b0;stroke:#ffffff;stroke-width:0.3;"/>
    <path clip-path="url(#p5d9d2ef9dd)" d="M 903.15 222.3 
L 1039.05 222.3 
L 1039.05 86.4 
L 903.15 86.4 
L 903.15 222.3 
" style="fill:#fffcfc;stroke:#ffffff;stroke-width:0.3;"/>
    <path clip-path="url(#p5d9d2ef9dd)" d="M 1039.05 222.3 
L 1174.95 222.3 
L 1174.95 86.4 
L 1039.05 86.4 
L 1039.05 222.3 
" style="fill:#ffe8e8;stroke:#ffffff;stroke-width:0.3;"/>
    <path clip-path="url(#p5d9d2ef9dd)" d="M 1174.95 222.3 
L 1310.85 222.3 
L 1310.85 86.4 
L 1174.95 86.4 
L 1174.95 222.3 
" style="fill:#ffcece;stroke:#ffffff;stroke-width:0.3;"/>
    <path clip-path="url(#p5d9d2ef9dd)" d="M 1310.85 222.3 
L 1446.75 222.3 
L 1446.75 86.4 
L 1310.85 86.4 
L 1310.85 222.3 
" style="fill:#ff9292;stroke:#ffffff;stroke-width:0.3;"/>
    <path clip-path="url(#p5d9d2ef9dd)" d="M 1446.75 222.3 
L 1582.65 222.3 
L 1582.65 86.4 
L 1446.75 86.4 
L 1446.75 222.3 
" style="fill:#ff9494;stroke:#ffffff;stroke-width:0.3;"/>
    <path clip-path="url(#p5d9d2ef9dd)" d="M 1582.65 222.3 
L 1718.55 222.3 
L 1718.55 86.4 
L 1582.65 86.4 
L 1582.65 222.3 
" style="fill:#ff9c9c;stroke:#ffffff;stroke-width:0.3;"/>
   </g>
   <g id="text_16">
    <!-- 55.6 -->
    <g style="fill:#262626;" transform="translate(527.9375 572.096875)scale(0.4 -0.4)">
     <use xlink:href="#Calibri-53"/>
     <use x="50.683594" xlink:href="#Calibri-53"/>
     <use x="101.367188" xlink:href="#Calibri-46"/>
     <use x="126.611328" xlink:href="#Calibri-54"/>
    </g>
   </g>
   <g id="text_17">
    <!-- 52.2 -->
    <g style="fill:#262626;" transform="translate(663.8375 572.096875)scale(0.4 -0.4)">
     <use xlink:href="#Calibri-53"/>
     <use x="50.683594" xlink:href="#Calibri-50"/>
     <use x="101.367188" xlink:href="#Calibri-46"/>
     <use x="126.611328" xlink:href="#Calibri-50"/>
    </g>
   </g>
   <g id="text_18">
    <!-- 50.9 -->
    <g style="fill:#262626;" transform="translate(799.7375 572.096875)scale(0.4 -0.4)">
     <use xlink:href="#Calibri-53"/>
     <use x="50.683594" xlink:href="#Calibri-48"/>
     <use x="101.367188" xlink:href="#Calibri-46"/>
     <use x="126.611328" xlink:href="#Calibri-57"/>
    </g>
   </g>
   <g id="text_19">
    <!-- 52.4 -->
    <g style="fill:#262626;" transform="translate(935.6375 572.096875)scale(0.4 -0.4)">
     <use xlink:href="#Calibri-53"/>
     <use x="50.683594" xlink:href="#Calibri-50"/>
     <use x="101.367188" xlink:href="#Calibri-46"/>
     <use x="126.611328" xlink:href="#Calibri-52"/>
    </g>
   </g>
   <g id="text_20">
    <!-- 52.4 -->
    <g style="fill:#262626;" transform="translate(1071.5375 572.096875)scale(0.4 -0.4)">
     <use xlink:href="#Calibri-53"/>
     <use x="50.683594" xlink:href="#Calibri-50"/>
     <use x="101.367188" xlink:href="#Calibri-46"/>
     <use x="126.611328" xlink:href="#Calibri-52"/>
    </g>
   </g>
   <g id="text_21">
    <!-- 52.9 -->
    <g style="fill:#262626;" transform="translate(1207.4375 572.096875)scale(0.4 -0.4)">
     <use xlink:href="#Calibri-53"/>
     <use x="50.683594" xlink:href="#Calibri-50"/>
     <use x="101.367188" xlink:href="#Calibri-46"/>
     <use x="126.611328" xlink:href="#Calibri-57"/>
    </g>
   </g>
   <g id="text_22">
    <!-- 53.5 -->
    <g style="fill:#262626;" transform="translate(1343.3375 572.096875)scale(0.4 -0.4)">
     <use xlink:href="#Calibri-53"/>
     <use x="50.683594" xlink:href="#Calibri-51"/>
     <use x="101.367188" xlink:href="#Calibri-46"/>
     <use x="126.611328" xlink:href="#Calibri-53"/>
    </g>
   </g>
   <g id="text_23">
    <!-- 53.2 -->
    <g style="fill:#262626;" transform="translate(1479.2375 572.096875)scale(0.4 -0.4)">
     <use xlink:href="#Calibri-53"/>
     <use x="50.683594" xlink:href="#Calibri-51"/>
     <use x="101.367188" xlink:href="#Calibri-46"/>
     <use x="126.611328" xlink:href="#Calibri-50"/>
    </g>
   </g>
   <g id="text_24">
    <!-- 55.8 -->
    <g style="fill:#262626;" transform="translate(1615.1375 572.096875)scale(0.4 -0.4)">
     <use xlink:href="#Calibri-53"/>
     <use x="50.683594" xlink:href="#Calibri-53"/>
     <use x="101.367188" xlink:href="#Calibri-46"/>
     <use x="126.611328" xlink:href="#Calibri-56"/>
    </g>
   </g>
   <g id="text_25">
    <!-- 67 -->
    <g style="fill:#ffffff;" transform="translate(543.125 436.196875)scale(0.4 -0.4)">
     <defs>
      <path d="M 46.046875 59.578125 
Q 46.046875 58.6875 45.96875 57.984375 
Q 45.90625 57.28125 45.78125 56.609375 
Q 45.65625 55.953125 45.4375 55.34375 
Q 45.21875 54.734375 44.921875 54.046875 
L 22.171875 1.609375 
Q 21.921875 1.03125 21.546875 0.65625 
Q 21.1875 0.296875 20.625 0.078125 
Q 20.0625 -0.140625 19.1875 -0.21875 
Q 18.3125 -0.296875 17.046875 -0.296875 
Q 15.375 -0.296875 14.453125 -0.140625 
Q 13.53125 0 13.109375 0.3125 
Q 12.703125 0.640625 12.75 1.09375 
Q 12.796875 1.5625 13.09375 2.203125 
L 37.015625 55.8125 
L 6.6875 55.8125 
Q 5.765625 55.8125 5.296875 56.78125 
Q 4.828125 57.765625 4.828125 59.515625 
Q 4.828125 60.453125 4.953125 61.125 
Q 5.078125 61.8125 5.3125 62.28125 
Q 5.5625 62.75 5.90625 62.96875 
Q 6.25 63.1875 6.6875 63.1875 
L 43.5 63.1875 
Q 44.1875 63.1875 44.703125 63.03125 
Q 45.21875 62.890625 45.484375 62.453125 
Q 45.75 62.015625 45.890625 61.328125 
Q 46.046875 60.640625 46.046875 59.578125 
z
" id="Calibri-55"/>
     </defs>
     <use xlink:href="#Calibri-54"/>
     <use x="50.683594" xlink:href="#Calibri-55"/>
    </g>
   </g>
   <g id="text_26">
    <!-- 60.7 -->
    <g style="fill:#ffffff;" transform="translate(663.8375 436.196875)scale(0.4 -0.4)">
     <use xlink:href="#Calibri-54"/>
     <use x="50.683594" xlink:href="#Calibri-48"/>
     <use x="101.367188" xlink:href="#Calibri-46"/>
     <use x="126.611328" xlink:href="#Calibri-55"/>
    </g>
   </g>
   <g id="text_27">
    <!-- 54.1 -->
    <g style="fill:#262626;" transform="translate(799.7375 436.196875)scale(0.4 -0.4)">
     <use xlink:href="#Calibri-53"/>
     <use x="50.683594" xlink:href="#Calibri-52"/>
     <use x="101.367188" xlink:href="#Calibri-46"/>
     <use x="126.611328" xlink:href="#Calibri-49"/>
    </g>
   </g>
   <g id="text_28">
    <!-- 56.1 -->
    <g style="fill:#262626;" transform="translate(935.6375 436.196875)scale(0.4 -0.4)">
     <use xlink:href="#Calibri-53"/>
     <use x="50.683594" xlink:href="#Calibri-54"/>
     <use x="101.367188" xlink:href="#Calibri-46"/>
     <use x="126.611328" xlink:href="#Calibri-49"/>
    </g>
   </g>
   <g id="text_29">
    <!-- 56.7 -->
    <g style="fill:#262626;" transform="translate(1071.5375 436.196875)scale(0.4 -0.4)">
     <use xlink:href="#Calibri-53"/>
     <use x="50.683594" xlink:href="#Calibri-54"/>
     <use x="101.367188" xlink:href="#Calibri-46"/>
     <use x="126.611328" xlink:href="#Calibri-55"/>
    </g>
   </g>
   <g id="text_30">
    <!-- 58.6 -->
    <g style="fill:#262626;" transform="translate(1207.4375 436.196875)scale(0.4 -0.4)">
     <use xlink:href="#Calibri-53"/>
     <use x="50.683594" xlink:href="#Calibri-56"/>
     <use x="101.367188" xlink:href="#Calibri-46"/>
     <use x="126.611328" xlink:href="#Calibri-54"/>
    </g>
   </g>
   <g id="text_31">
    <!-- 64.6 -->
    <g style="fill:#ffffff;" transform="translate(1343.3375 436.196875)scale(0.4 -0.4)">
     <use xlink:href="#Calibri-54"/>
     <use x="50.683594" xlink:href="#Calibri-52"/>
     <use x="101.367188" xlink:href="#Calibri-46"/>
     <use x="126.611328" xlink:href="#Calibri-54"/>
    </g>
   </g>
   <g id="text_32">
    <!-- 66.6 -->
    <g style="fill:#ffffff;" transform="translate(1479.2375 436.196875)scale(0.4 -0.4)">
     <use xlink:href="#Calibri-54"/>
     <use x="50.683594" xlink:href="#Calibri-54"/>
     <use x="101.367188" xlink:href="#Calibri-46"/>
     <use x="126.611328" xlink:href="#Calibri-54"/>
    </g>
   </g>
   <g id="text_33">
    <!-- 66.7 -->
    <g style="fill:#ffffff;" transform="translate(1615.1375 436.196875)scale(0.4 -0.4)">
     <use xlink:href="#Calibri-54"/>
     <use x="50.683594" xlink:href="#Calibri-54"/>
     <use x="101.367188" xlink:href="#Calibri-46"/>
     <use x="126.611328" xlink:href="#Calibri-55"/>
    </g>
   </g>
   <g id="text_34">
    <!-- 67 -->
    <g style="fill:#ffffff;" transform="translate(543.125 300.296875)scale(0.4 -0.4)">
     <use xlink:href="#Calibri-54"/>
     <use x="50.683594" xlink:href="#Calibri-55"/>
    </g>
   </g>
   <g id="text_35">
    <!-- 60.8 -->
    <g style="fill:#ffffff;" transform="translate(663.8375 300.296875)scale(0.4 -0.4)">
     <use xlink:href="#Calibri-54"/>
     <use x="50.683594" xlink:href="#Calibri-48"/>
     <use x="101.367188" xlink:href="#Calibri-46"/>
     <use x="126.611328" xlink:href="#Calibri-56"/>
    </g>
   </g>
   <g id="text_36">
    <!-- 55.5 -->
    <g style="fill:#262626;" transform="translate(799.7375 300.296875)scale(0.4 -0.4)">
     <use xlink:href="#Calibri-53"/>
     <use x="50.683594" xlink:href="#Calibri-53"/>
     <use x="101.367188" xlink:href="#Calibri-46"/>
     <use x="126.611328" xlink:href="#Calibri-53"/>
    </g>
   </g>
   <g id="text_37">
    <!-- 56.6 -->
    <g style="fill:#262626;" transform="translate(935.6375 300.296875)scale(0.4 -0.4)">
     <use xlink:href="#Calibri-53"/>
     <use x="50.683594" xlink:href="#Calibri-54"/>
     <use x="101.367188" xlink:href="#Calibri-46"/>
     <use x="126.611328" xlink:href="#Calibri-54"/>
    </g>
   </g>
   <g id="text_38">
    <!-- 53.6 -->
    <g style="fill:#262626;" transform="translate(1071.5375 300.296875)scale(0.4 -0.4)">
     <use xlink:href="#Calibri-53"/>
     <use x="50.683594" xlink:href="#Calibri-51"/>
     <use x="101.367188" xlink:href="#Calibri-46"/>
     <use x="126.611328" xlink:href="#Calibri-54"/>
    </g>
   </g>
   <g id="text_39">
    <!-- 57.9 -->
    <g style="fill:#262626;" transform="translate(1207.4375 300.296875)scale(0.4 -0.4)">
     <use xlink:href="#Calibri-53"/>
     <use x="50.683594" xlink:href="#Calibri-55"/>
     <use x="101.367188" xlink:href="#Calibri-46"/>
     <use x="126.611328" xlink:href="#Calibri-57"/>
    </g>
   </g>
   <g id="text_40">
    <!-- 63.9 -->
    <g style="fill:#ffffff;" transform="translate(1343.3375 300.296875)scale(0.4 -0.4)">
     <use xlink:href="#Calibri-54"/>
     <use x="50.683594" xlink:href="#Calibri-51"/>
     <use x="101.367188" xlink:href="#Calibri-46"/>
     <use x="126.611328" xlink:href="#Calibri-57"/>
    </g>
   </g>
   <g id="text_41">
    <!-- 66.2 -->
    <g style="fill:#ffffff;" transform="translate(1479.2375 300.296875)scale(0.4 -0.4)">
     <use xlink:href="#Calibri-54"/>
     <use x="50.683594" xlink:href="#Calibri-54"/>
     <use x="101.367188" xlink:href="#Calibri-46"/>
     <use x="126.611328" xlink:href="#Calibri-50"/>
    </g>
   </g>
   <g id="text_42">
    <!-- 65.7 -->
    <g style="fill:#ffffff;" transform="translate(1615.1375 300.296875)scale(0.4 -0.4)">
     <use xlink:href="#Calibri-54"/>
     <use x="50.683594" xlink:href="#Calibri-53"/>
     <use x="101.367188" xlink:href="#Calibri-46"/>
     <use x="126.611328" xlink:href="#Calibri-55"/>
    </g>
   </g>
   <g id="text_43">
    <!-- 60.9 -->
    <g style="fill:#ffffff;" transform="translate(527.9375 164.396875)scale(0.4 -0.4)">
     <use xlink:href="#Calibri-54"/>
     <use x="50.683594" xlink:href="#Calibri-48"/>
     <use x="101.367188" xlink:href="#Calibri-46"/>
     <use x="126.611328" xlink:href="#Calibri-57"/>
    </g>
   </g>
   <g id="text_44">
    <!-- 57.3 -->
    <g style="fill:#262626;" transform="translate(663.8375 164.396875)scale(0.4 -0.4)">
     <use xlink:href="#Calibri-53"/>
     <use x="50.683594" xlink:href="#Calibri-55"/>
     <use x="101.367188" xlink:href="#Calibri-46"/>
     <use x="126.611328" xlink:href="#Calibri-51"/>
    </g>
   </g>
   <g id="text_45">
    <!-- 56.2 -->
    <g style="fill:#262626;" transform="translate(799.7375 164.396875)scale(0.4 -0.4)">
     <use xlink:href="#Calibri-53"/>
     <use x="50.683594" xlink:href="#Calibri-54"/>
     <use x="101.367188" xlink:href="#Calibri-46"/>
     <use x="126.611328" xlink:href="#Calibri-50"/>
    </g>
   </g>
   <g id="text_46">
    <!-- 50.2 -->
    <g style="fill:#262626;" transform="translate(935.6375 164.396875)scale(0.4 -0.4)">
     <use xlink:href="#Calibri-53"/>
     <use x="50.683594" xlink:href="#Calibri-48"/>
     <use x="101.367188" xlink:href="#Calibri-46"/>
     <use x="126.611328" xlink:href="#Calibri-50"/>
    </g>
   </g>
   <g id="text_47">
    <!-- 51.8 -->
    <g style="fill:#262626;" transform="translate(1071.5375 164.396875)scale(0.4 -0.4)">
     <use xlink:href="#Calibri-53"/>
     <use x="50.683594" xlink:href="#Calibri-49"/>
     <use x="101.367188" xlink:href="#Calibri-46"/>
     <use x="126.611328" xlink:href="#Calibri-56"/>
    </g>
   </g>
   <g id="text_48">
    <!-- 53.8 -->
    <g style="fill:#262626;" transform="translate(1207.4375 164.396875)scale(0.4 -0.4)">
     <use xlink:href="#Calibri-53"/>
     <use x="50.683594" xlink:href="#Calibri-51"/>
     <use x="101.367188" xlink:href="#Calibri-46"/>
     <use x="126.611328" xlink:href="#Calibri-56"/>
    </g>
   </g>
   <g id="text_49">
    <!-- 58.5 -->
    <g style="fill:#262626;" transform="translate(1343.3375 164.396875)scale(0.4 -0.4)">
     <use xlink:href="#Calibri-53"/>
     <use x="50.683594" xlink:href="#Calibri-56"/>
     <use x="101.367188" xlink:href="#Calibri-46"/>
     <use x="126.611328" xlink:href="#Calibri-53"/>
    </g>
   </g>
   <g id="text_50">
    <!-- 58.3 -->
    <g style="fill:#262626;" transform="translate(1479.2375 164.396875)scale(0.4 -0.4)">
     <use xlink:href="#Calibri-53"/>
     <use x="50.683594" xlink:href="#Calibri-56"/>
     <use x="101.367188" xlink:href="#Calibri-46"/>
     <use x="126.611328" xlink:href="#Calibri-51"/>
    </g>
   </g>
   <g id="text_51">
    <!-- 57.7 -->
    <g style="fill:#262626;" transform="translate(1615.1375 164.396875)scale(0.4 -0.4)">
     <use xlink:href="#Calibri-53"/>
     <use x="50.683594" xlink:href="#Calibri-55"/>
     <use x="101.367188" xlink:href="#Calibri-46"/>
     <use x="126.611328" xlink:href="#Calibri-55"/>
    </g>
   </g>
  </g>
  <g id="text_52">
   <!-- LR -->
   <g style="fill:#262626;" transform="translate(1055.158312 48.65625)scale(0.504 -0.504)">
    <defs>
     <path d="M 41.609375 5.375 
Q 41.609375 3.90625 41.484375 2.90625 
Q 41.359375 1.90625 41.109375 1.25 
Q 40.875 0.59375 40.5 0.296875 
Q 40.140625 0 39.65625 0 
L 10.6875 0 
Q 9.078125 0 7.984375 0.953125 
Q 6.890625 1.90625 6.890625 4.046875 
L 6.890625 61.421875 
Q 6.890625 61.921875 7.203125 62.3125 
Q 7.515625 62.703125 8.25 62.9375 
Q 8.984375 63.1875 10.21875 63.328125 
Q 11.46875 63.484375 13.328125 63.484375 
Q 15.234375 63.484375 16.453125 63.328125 
Q 17.671875 63.1875 18.40625 62.9375 
Q 19.140625 62.703125 19.453125 62.3125 
Q 19.78125 61.921875 19.78125 61.421875 
L 19.78125 10.59375 
L 39.65625 10.59375 
Q 40.140625 10.59375 40.5 10.328125 
Q 40.875 10.0625 41.109375 9.453125 
Q 41.359375 8.84375 41.484375 7.84375 
Q 41.609375 6.84375 41.609375 5.375 
z
" id="Calibri-Bold-76"/>
     <path d="M 53.765625 1.65625 
Q 53.765625 1.125 53.5625 0.75 
Q 53.375 0.390625 52.640625 0.140625 
Q 51.90625 -0.09375 50.484375 -0.1875 
Q 49.078125 -0.296875 46.625 -0.296875 
Q 44.578125 -0.296875 43.359375 -0.1875 
Q 42.140625 -0.09375 41.421875 0.171875 
Q 40.71875 0.4375 40.421875 0.84375 
Q 40.140625 1.265625 39.9375 1.859375 
L 34.28125 15.96875 
Q 33.25 18.359375 32.265625 20.21875 
Q 31.296875 22.078125 30.09375 23.3125 
Q 28.90625 24.5625 27.34375 25.1875 
Q 25.78125 25.828125 23.734375 25.828125 
L 19.734375 25.828125 
L 19.734375 1.765625 
Q 19.734375 1.265625 19.40625 0.875 
Q 19.09375 0.484375 18.359375 0.234375 
Q 17.625 0 16.40625 -0.140625 
Q 15.1875 -0.296875 13.28125 -0.296875 
Q 11.421875 -0.296875 10.171875 -0.140625 
Q 8.9375 0 8.203125 0.234375 
Q 7.46875 0.484375 7.171875 0.875 
Q 6.890625 1.265625 6.890625 1.765625 
L 6.890625 59.125 
Q 6.890625 61.28125 7.984375 62.234375 
Q 9.078125 63.1875 10.6875 63.1875 
L 27.046875 63.1875 
Q 29.546875 63.1875 31.15625 63.078125 
Q 32.765625 62.984375 34.078125 62.84375 
Q 37.890625 62.3125 40.9375 60.984375 
Q 44 59.671875 46.125 57.546875 
Q 48.25 55.421875 49.359375 52.515625 
Q 50.484375 49.609375 50.484375 45.84375 
Q 50.484375 42.671875 49.671875 40.0625 
Q 48.875 37.453125 47.3125 35.390625 
Q 45.75 33.34375 43.453125 31.828125 
Q 41.15625 30.328125 38.234375 29.390625 
Q 39.65625 28.71875 40.890625 27.734375 
Q 42.140625 26.765625 43.234375 25.359375 
Q 44.34375 23.96875 45.3125 22.1875 
Q 46.296875 20.40625 47.21875 18.171875 
L 52.546875 5.71875 
Q 53.265625 3.859375 53.515625 3 
Q 53.765625 2.15625 53.765625 1.65625 
z
M 37.203125 44.53125 
Q 37.203125 47.65625 35.78125 49.796875 
Q 34.375 51.953125 31.15625 52.828125 
Q 30.171875 53.078125 28.921875 53.21875 
Q 27.6875 53.375 25.484375 53.375 
L 19.734375 53.375 
L 19.734375 35.453125 
L 26.265625 35.453125 
Q 29 35.453125 31.046875 36.109375 
Q 33.109375 36.765625 34.46875 37.953125 
Q 35.84375 39.15625 36.515625 40.8125 
Q 37.203125 42.484375 37.203125 44.53125 
z
" id="Calibri-Bold-82"/>
    </defs>
    <use xlink:href="#Calibri-Bold-76"/>
    <use x="42.285156" xlink:href="#Calibri-Bold-82"/>
   </g>
  </g>
 </g>
 <defs>
  <clipPath id="p5d9d2ef9dd">
   <rect height="543.6" width="1223.1" x="495.45" y="86.4"/>
  </clipPath>
 </defs>
</svg>
